<svg xmlns="http://www.w3.org/2000/svg" viewBox="0 0 1200 962" width="1200" height="962" role="img">
  <defs>
    <pattern id="mm" width="40" height="40" patternUnits="userSpaceOnUse">
      <path d="M40 0H0V40" fill="none" stroke="#17150F" stroke-width="0.6" opacity="0.07"/>
    </pattern>
    <pattern id="mm5" width="200" height="200" patternUnits="userSpaceOnUse">
      <path d="M200 0H0V200" fill="none" stroke="#17150F" stroke-width="0.9" opacity="0.11"/>
    </pattern></defs>
  <rect width="1200" height="962" fill="#EFEDE6"/>
  <rect width="1200" height="900" fill="url(#mm)"/>
  <rect width="1200" height="900" fill="url(#mm5)"/>
  <rect x="150" y="340" width="900" height="200" fill="#B4B7AB" stroke="#17150F" stroke-width="2"/><rect x="185" y="255" width="830" height="130" fill="#979B8B" stroke="#17150F" stroke-width="2"/><line x1="462" y1="255" x2="462" y2="385" stroke="#17150F" stroke-width="1.5"/><line x1="738" y1="255" x2="738" y2="385" stroke="#17150F" stroke-width="1.5"/><line x1="185" y1="340" x2="1015" y2="340" stroke="#17150F" stroke-width="1.5" opacity="0.5"/><line x1="430" y1="340" x2="430" y2="540" stroke="#17150F" stroke-width="1.5"/><line x1="770" y1="340" x2="770" y2="540" stroke="#17150F" stroke-width="1.5"/><rect x="120" y="300" width="70" height="240" fill="#74786A" stroke="#17150F" stroke-width="2" opacity="0.6"/><rect x="1010" y="300" width="70" height="240" fill="#74786A" stroke="#17150F" stroke-width="2" opacity="0.6"/><line x1="200" y1="540" x2="200" y2="610" stroke="#17150F" stroke-width="5"/><line x1="1000" y1="540" x2="1000" y2="610" stroke="#17150F" stroke-width="5"/><line x1="150" y1="610" x2="1050" y2="610" stroke="#17150F" stroke-width="1" stroke-dasharray="10 8" opacity="0.35"/><line x1="120" y1="700" x2="1080" y2="700" stroke="#17150F" stroke-width="1.2" opacity="0.55"/><line x1="113" y1="707" x2="127" y2="693" stroke="#17150F" stroke-width="1.2" opacity="0.55"/><line x1="1073" y1="707" x2="1087" y2="693" stroke="#17150F" stroke-width="1.2" opacity="0.55"/><rect x="554" y="685" width="92" height="30" fill="#EFEDE6"/><text x="600" y="707" font-family="'JetBrains Mono','IBM Plex Mono',ui-monospace,SFMono-Regular,Menlo,Consolas,monospace" font-size="19" fill="#17150F" opacity="0.72" letter-spacing="1" text-anchor="middle">2600</text><line x1="70" y1="255" x2="70" y2="610" stroke="#17150F" stroke-width="1.2" opacity="0.55"/><line x1="63" y1="262" x2="77" y2="248" stroke="#17150F" stroke-width="1.2" opacity="0.55"/><line x1="63" y1="617" x2="77" y2="603" stroke="#17150F" stroke-width="1.2" opacity="0.55"/><g transform="translate(70 432.5) rotate(-90)"><rect x="-46" y="-15" width="92" height="30" fill="#EFEDE6"/><text x="0" y="7" font-family="'JetBrains Mono','IBM Plex Mono',ui-monospace,SFMono-Regular,Menlo,Consolas,monospace" font-size="19" fill="#17150F" opacity="0.72" letter-spacing="1" text-anchor="middle">850</text></g>
  
  <rect x="0" y="900" width="1200" height="62" fill="#EFEDE6"/><line x1="0" y1="900" x2="1200" y2="900" stroke="#17150F" stroke-width="1.4" opacity="0.4"/><line x1="730" y1="900" x2="730" y2="962" stroke="#17150F" stroke-width="1.2" opacity="0.25"/><line x1="1000" y1="900" x2="1000" y2="962" stroke="#17150F" stroke-width="1.2" opacity="0.25"/><text x="34" y="938" font-family="'JetBrains Mono','IBM Plex Mono',ui-monospace,SFMono-Regular,Menlo,Consolas,monospace" font-size="17" fill="#17150F" opacity="0.55" letter-spacing="1">ФОРМА · МЕБЕЛЬ НА ЗАКАЗ · ЭСКИЗ ПЕРЕД ЗАМЕРОМ</text><text x="760" y="938" font-family="'JetBrains Mono','IBM Plex Mono',ui-monospace,SFMono-Regular,Menlo,Consolas,monospace" font-size="17" fill="#17150F" opacity="0.55" letter-spacing="1">МГ-01</text><text x="1030" y="938" font-family="'JetBrains Mono','IBM Plex Mono',ui-monospace,SFMono-Regular,Menlo,Consolas,monospace" font-size="17" fill="#17150F" opacity="0.55" letter-spacing="1">М 1:20</text>
</svg>