<svg xmlns="http://www.w3.org/2000/svg" viewBox="0 0 1200 962" width="1200" height="962" role="img">
  <defs>
    <pattern id="mm" width="40" height="40" patternUnits="userSpaceOnUse">
      <path d="M40 0H0V40" fill="none" stroke="#17150F" stroke-width="0.6" opacity="0.07"/>
    </pattern>
    <pattern id="mm5" width="200" height="200" patternUnits="userSpaceOnUse">
      <path d="M200 0H0V200" fill="none" stroke="#17150F" stroke-width="0.9" opacity="0.11"/>
    </pattern></defs>
  <rect width="1200" height="962" fill="#EFEDE6"/>
  <rect width="1200" height="900" fill="url(#mm)"/>
  <rect width="1200" height="900" fill="url(#mm5)"/>
  <line x1="200" y1="130" x2="200" y2="830" stroke="#17150F" stroke-width="3"/><line x1="1000" y1="130" x2="1000" y2="830" stroke="#17150F" stroke-width="3"/><line x1="200" y1="130" x2="1000" y2="130" stroke="#17150F" stroke-width="3"/><line x1="200" y1="830" x2="1000" y2="830" stroke="#17150F" stroke-width="3"/><line x1="466" y1="130" x2="466" y2="830" stroke="#17150F" stroke-width="2"/><line x1="733" y1="130" x2="733" y2="830" stroke="#17150F" stroke-width="2"/><line x1="200" y1="250" x2="466" y2="250" stroke="#17150F" stroke-width="3"/><line x1="230" y1="250" x2="230" y2="480" stroke="#17150F" stroke-width="1.5" stroke-dasharray="6 9" opacity="0.6"/><line x1="320" y1="250" x2="320" y2="480" stroke="#17150F" stroke-width="1.5" stroke-dasharray="6 9" opacity="0.6"/><line x1="410" y1="250" x2="410" y2="480" stroke="#17150F" stroke-width="1.5" stroke-dasharray="6 9" opacity="0.6"/><line x1="200" y1="500" x2="466" y2="500" stroke="#17150F" stroke-width="3"/><line x1="230" y1="500" x2="230" y2="640" stroke="#17150F" stroke-width="1.5" stroke-dasharray="6 9" opacity="0.6"/><line x1="330" y1="500" x2="330" y2="640" stroke="#17150F" stroke-width="1.5" stroke-dasharray="6 9" opacity="0.6"/><rect x="210" y="660" width="246" height="70" fill="#BFB6A4" stroke="#17150F" stroke-width="2"/><rect x="210" y="740" width="246" height="70" fill="#BFB6A4" stroke="#17150F" stroke-width="2"/><line x1="280" y1="700" x2="380" y2="700" stroke="#17150F" stroke-width="4" opacity="0.55"/><line x1="280" y1="780" x2="380" y2="780" stroke="#17150F" stroke-width="4" opacity="0.55"/><line x1="466" y1="320" x2="733" y2="320" stroke="#17150F" stroke-width="1.5"/><line x1="466" y1="420" x2="733" y2="420" stroke="#17150F" stroke-width="1.5"/><line x1="466" y1="520" x2="733" y2="520" stroke="#17150F" stroke-width="1.5"/><line x1="466" y1="620" x2="733" y2="620" stroke="#17150F" stroke-width="1.5"/><line x1="466" y1="720" x2="733" y2="720" stroke="#17150F" stroke-width="1.5"/><line x1="733" y1="220" x2="1000" y2="220" stroke="#17150F" stroke-width="3"/><line x1="760" y1="220" x2="760" y2="560" stroke="#17150F" stroke-width="1.5" stroke-dasharray="6 9" opacity="0.6"/><line x1="870" y1="220" x2="870" y2="560" stroke="#17150F" stroke-width="1.5" stroke-dasharray="6 9" opacity="0.6"/><rect x="745" y="600" width="240" height="100" fill="#A2977F" stroke="#17150F" stroke-width="2"/><rect x="745" y="710" width="240" height="100" fill="#A2977F" stroke="#17150F" stroke-width="2"/><line x1="810" y1="650" x2="920" y2="650" stroke="#17150F" stroke-width="4" opacity="0.55"/><line x1="810" y1="760" x2="920" y2="760" stroke="#17150F" stroke-width="4" opacity="0.55"/><line x1="200" y1="880" x2="1000" y2="880" stroke="#17150F" stroke-width="1.2" opacity="0.55"/><line x1="193" y1="887" x2="207" y2="873" stroke="#17150F" stroke-width="1.2" opacity="0.55"/><line x1="993" y1="887" x2="1007" y2="873" stroke="#17150F" stroke-width="1.2" opacity="0.55"/><rect x="554" y="865" width="92" height="30" fill="#EFEDE6"/><text x="600" y="887" font-family="'JetBrains Mono','IBM Plex Mono',ui-monospace,SFMono-Regular,Menlo,Consolas,monospace" font-size="19" fill="#17150F" opacity="0.72" letter-spacing="1" text-anchor="middle">3200</text><line x1="150" y1="130" x2="150" y2="830" stroke="#17150F" stroke-width="1.2" opacity="0.55"/><line x1="143" y1="137" x2="157" y2="123" stroke="#17150F" stroke-width="1.2" opacity="0.55"/><line x1="143" y1="837" x2="157" y2="823" stroke="#17150F" stroke-width="1.2" opacity="0.55"/><g transform="translate(150 480) rotate(-90)"><rect x="-46" y="-15" width="92" height="30" fill="#EFEDE6"/><text x="0" y="7" font-family="'JetBrains Mono','IBM Plex Mono',ui-monospace,SFMono-Regular,Menlo,Consolas,monospace" font-size="19" fill="#17150F" opacity="0.72" letter-spacing="1" text-anchor="middle">2700</text></g>
  
  <rect x="0" y="900" width="1200" height="62" fill="#EFEDE6"/><line x1="0" y1="900" x2="1200" y2="900" stroke="#17150F" stroke-width="1.4" opacity="0.4"/><line x1="730" y1="900" x2="730" y2="962" stroke="#17150F" stroke-width="1.2" opacity="0.25"/><line x1="1000" y1="900" x2="1000" y2="962" stroke="#17150F" stroke-width="1.2" opacity="0.25"/><text x="34" y="938" font-family="'JetBrains Mono','IBM Plex Mono',ui-monospace,SFMono-Regular,Menlo,Consolas,monospace" font-size="17" fill="#17150F" opacity="0.55" letter-spacing="1">FAM · FAMILY FURNITURE · ЭСКИЗ ПЕРЕД ЗАМЕРОМ</text><text x="760" y="938" font-family="'JetBrains Mono','IBM Plex Mono',ui-monospace,SFMono-Regular,Menlo,Consolas,monospace" font-size="17" fill="#17150F" opacity="0.55" letter-spacing="1">ШК-01</text><text x="1030" y="938" font-family="'JetBrains Mono','IBM Plex Mono',ui-monospace,SFMono-Regular,Menlo,Consolas,monospace" font-size="17" fill="#17150F" opacity="0.55" letter-spacing="1">М 1:20</text>
</svg>