<svg xmlns="http://www.w3.org/2000/svg" viewBox="0 0 1200 962" width="1200" height="962" role="img">
  <defs>
    <pattern id="mm" width="40" height="40" patternUnits="userSpaceOnUse">
      <path d="M40 0H0V40" fill="none" stroke="#17150F" stroke-width="0.6" opacity="0.07"/>
    </pattern>
    <pattern id="mm5" width="200" height="200" patternUnits="userSpaceOnUse">
      <path d="M200 0H0V200" fill="none" stroke="#17150F" stroke-width="0.9" opacity="0.11"/>
    </pattern></defs>
  <rect width="1200" height="962" fill="#EFEDE6"/>
  <rect width="1200" height="900" fill="url(#mm)"/>
  <rect width="1200" height="900" fill="url(#mm5)"/>
  <rect x="150" y="520" width="900" height="190" fill="#C7BCA6" stroke="#17150F" stroke-width="2"/><line x1="375" y1="520" x2="375" y2="710" stroke="#17150F" stroke-width="1.5"/><line x1="600" y1="520" x2="600" y2="710" stroke="#17150F" stroke-width="1.5"/><line x1="825" y1="520" x2="825" y2="710" stroke="#17150F" stroke-width="1.5"/><line x1="230" y1="700" x2="296" y2="700" stroke="#17150F" stroke-width="4" opacity="0.55"/><line x1="455" y1="700" x2="521" y2="700" stroke="#17150F" stroke-width="4" opacity="0.55"/><line x1="680" y1="700" x2="746" y2="700" stroke="#17150F" stroke-width="4" opacity="0.55"/><line x1="905" y1="700" x2="971" y2="700" stroke="#17150F" stroke-width="4" opacity="0.55"/><rect x="150" y="710" width="900" height="16" fill="#8E8471" stroke="#17150F" stroke-width="2"/><rect x="360" y="150" width="480" height="300" fill="#8E8471" stroke="#17150F" stroke-width="2" opacity="0.45"/><rect x="150" y="220" width="150" height="18" fill="#AC9F86" stroke="#17150F" stroke-width="2"/><rect x="900" y="300" width="150" height="18" fill="#AC9F86" stroke="#17150F" stroke-width="2"/><rect x="150" y="360" width="150" height="18" fill="#AC9F86" stroke="#17150F" stroke-width="2"/><rect x="900" y="430" width="150" height="18" fill="#AC9F86" stroke="#17150F" stroke-width="2"/><circle cx="200" cy="195" r="20" fill="#AC9F86" stroke="#17150F" stroke-width="2"/><rect x="950" y="250" width="34" height="50" fill="#AC9F86" stroke="#17150F" stroke-width="2"/><line x1="150" y1="780" x2="1050" y2="780" stroke="#17150F" stroke-width="1.2" opacity="0.55"/><line x1="143" y1="787" x2="157" y2="773" stroke="#17150F" stroke-width="1.2" opacity="0.55"/><line x1="1043" y1="787" x2="1057" y2="773" stroke="#17150F" stroke-width="1.2" opacity="0.55"/><rect x="554" y="765" width="92" height="30" fill="#EFEDE6"/><text x="600" y="787" font-family="'JetBrains Mono','IBM Plex Mono',ui-monospace,SFMono-Regular,Menlo,Consolas,monospace" font-size="19" fill="#17150F" opacity="0.72" letter-spacing="1" text-anchor="middle">3800</text><line x1="100" y1="150" x2="100" y2="726" stroke="#17150F" stroke-width="1.2" opacity="0.55"/><line x1="93" y1="157" x2="107" y2="143" stroke="#17150F" stroke-width="1.2" opacity="0.55"/><line x1="93" y1="733" x2="107" y2="719" stroke="#17150F" stroke-width="1.2" opacity="0.55"/><g transform="translate(100 438) rotate(-90)"><rect x="-46" y="-15" width="92" height="30" fill="#EFEDE6"/><text x="0" y="7" font-family="'JetBrains Mono','IBM Plex Mono',ui-monospace,SFMono-Regular,Menlo,Consolas,monospace" font-size="19" fill="#17150F" opacity="0.72" letter-spacing="1" text-anchor="middle">2300</text></g>
  
  <rect x="0" y="900" width="1200" height="62" fill="#EFEDE6"/><line x1="0" y1="900" x2="1200" y2="900" stroke="#17150F" stroke-width="1.4" opacity="0.4"/><line x1="730" y1="900" x2="730" y2="962" stroke="#17150F" stroke-width="1.2" opacity="0.25"/><line x1="1000" y1="900" x2="1000" y2="962" stroke="#17150F" stroke-width="1.2" opacity="0.25"/><text x="34" y="938" font-family="'JetBrains Mono','IBM Plex Mono',ui-monospace,SFMono-Regular,Menlo,Consolas,monospace" font-size="17" fill="#17150F" opacity="0.55" letter-spacing="1">ФОРМА · МЕБЕЛЬ НА ЗАКАЗ · ЭСКИЗ ПЕРЕД ЗАМЕРОМ</text><text x="760" y="938" font-family="'JetBrains Mono','IBM Plex Mono',ui-monospace,SFMono-Regular,Menlo,Consolas,monospace" font-size="17" fill="#17150F" opacity="0.55" letter-spacing="1">ГС-01</text><text x="1030" y="938" font-family="'JetBrains Mono','IBM Plex Mono',ui-monospace,SFMono-Regular,Menlo,Consolas,monospace" font-size="17" fill="#17150F" opacity="0.55" letter-spacing="1">М 1:20</text>
</svg>