<svg xmlns="http://www.w3.org/2000/svg" viewBox="0 0 1200 962" width="1200" height="962" role="img">
  <defs>
    <pattern id="mm" width="40" height="40" patternUnits="userSpaceOnUse">
      <path d="M40 0H0V40" fill="none" stroke="#17150F" stroke-width="0.6" opacity="0.07"/>
    </pattern>
    <pattern id="mm5" width="200" height="200" patternUnits="userSpaceOnUse">
      <path d="M200 0H0V200" fill="none" stroke="#17150F" stroke-width="0.9" opacity="0.11"/>
    </pattern></defs>
  <rect width="1200" height="962" fill="#EFEDE6"/>
  <rect width="1200" height="900" fill="url(#mm)"/>
  <rect width="1200" height="900" fill="url(#mm5)"/>
  <rect x="160" y="430" width="880" height="30" fill="#7E7460" stroke="#17150F" stroke-width="2"/><rect x="190" y="460" width="220" height="300" fill="#BFB6A4" stroke="#17150F" stroke-width="2"/><line x1="190" y1="560" x2="410" y2="560" stroke="#17150F" stroke-width="1.5"/><line x1="190" y1="660" x2="410" y2="660" stroke="#17150F" stroke-width="1.5"/><line x1="230" y1="535" x2="320" y2="535" stroke="#17150F" stroke-width="4" opacity="0.55"/><line x1="230" y1="635" x2="320" y2="635" stroke="#17150F" stroke-width="4" opacity="0.55"/><line x1="230" y1="735" x2="320" y2="735" stroke="#17150F" stroke-width="4" opacity="0.55"/><line x1="980" y1="460" x2="980" y2="790" stroke="#17150F" stroke-width="6"/><line x1="930" y1="790" x2="1030" y2="790" stroke="#17150F" stroke-width="6"/><rect x="560" y="140" width="440" height="240" fill="#BFB6A4" stroke="#17150F" stroke-width="2"/><line x1="560" y1="220" x2="1000" y2="220" stroke="#17150F" stroke-width="1.5"/><line x1="560" y1="300" x2="1000" y2="300" stroke="#17150F" stroke-width="1.5"/><line x1="780" y1="140" x2="780" y2="380" stroke="#17150F" stroke-width="1.5" opacity="0.5"/><rect x="600" y="160" width="60" height="40" fill="#A2977F" stroke="#17150F" stroke-width="2"/><rect x="820" y="240" width="90" height="40" fill="#A2977F" stroke="#17150F" stroke-width="2"/><rect x="250" y="300" width="200" height="130" fill="#A2977F" stroke="#17150F" stroke-width="2" opacity="0.6"/><line x1="250" y1="365" x2="450" y2="365" stroke="#17150F" stroke-width="1.5" opacity="0.4"/><line x1="160" y1="830" x2="1040" y2="830" stroke="#17150F" stroke-width="1.2" opacity="0.55"/><line x1="153" y1="837" x2="167" y2="823" stroke="#17150F" stroke-width="1.2" opacity="0.55"/><line x1="1033" y1="837" x2="1047" y2="823" stroke="#17150F" stroke-width="1.2" opacity="0.55"/><rect x="554" y="815" width="92" height="30" fill="#EFEDE6"/><text x="600" y="837" font-family="'JetBrains Mono','IBM Plex Mono',ui-monospace,SFMono-Regular,Menlo,Consolas,monospace" font-size="19" fill="#17150F" opacity="0.72" letter-spacing="1" text-anchor="middle">1800</text><line x1="110" y1="430" x2="110" y2="790" stroke="#17150F" stroke-width="1.2" opacity="0.55"/><line x1="103" y1="437" x2="117" y2="423" stroke="#17150F" stroke-width="1.2" opacity="0.55"/><line x1="103" y1="797" x2="117" y2="783" stroke="#17150F" stroke-width="1.2" opacity="0.55"/><g transform="translate(110 610) rotate(-90)"><rect x="-46" y="-15" width="92" height="30" fill="#EFEDE6"/><text x="0" y="7" font-family="'JetBrains Mono','IBM Plex Mono',ui-monospace,SFMono-Regular,Menlo,Consolas,monospace" font-size="19" fill="#17150F" opacity="0.72" letter-spacing="1" text-anchor="middle">750</text></g>
  
  <rect x="0" y="900" width="1200" height="62" fill="#EFEDE6"/><line x1="0" y1="900" x2="1200" y2="900" stroke="#17150F" stroke-width="1.4" opacity="0.4"/><line x1="730" y1="900" x2="730" y2="962" stroke="#17150F" stroke-width="1.2" opacity="0.25"/><line x1="1000" y1="900" x2="1000" y2="962" stroke="#17150F" stroke-width="1.2" opacity="0.25"/><text x="34" y="938" font-family="'JetBrains Mono','IBM Plex Mono',ui-monospace,SFMono-Regular,Menlo,Consolas,monospace" font-size="17" fill="#17150F" opacity="0.55" letter-spacing="1">FAM · FAMILY FURNITURE · ЭСКИЗ ПЕРЕД ЗАМЕРОМ</text><text x="760" y="938" font-family="'JetBrains Mono','IBM Plex Mono',ui-monospace,SFMono-Regular,Menlo,Consolas,monospace" font-size="17" fill="#17150F" opacity="0.55" letter-spacing="1">КБ-01</text><text x="1030" y="938" font-family="'JetBrains Mono','IBM Plex Mono',ui-monospace,SFMono-Regular,Menlo,Consolas,monospace" font-size="17" fill="#17150F" opacity="0.55" letter-spacing="1">М 1:20</text>
</svg>