<svg xmlns="http://www.w3.org/2000/svg" viewBox="0 0 1200 962" width="1200" height="962" role="img">
  <defs>
    <pattern id="mm" width="40" height="40" patternUnits="userSpaceOnUse">
      <path d="M40 0H0V40" fill="none" stroke="#17150F" stroke-width="0.6" opacity="0.07"/>
    </pattern>
    <pattern id="mm5" width="200" height="200" patternUnits="userSpaceOnUse">
      <path d="M200 0H0V200" fill="none" stroke="#17150F" stroke-width="0.9" opacity="0.11"/>
    </pattern></defs>
  <rect width="1200" height="962" fill="#EFEDE6"/>
  <rect width="1200" height="900" fill="url(#mm)"/>
  <rect width="1200" height="900" fill="url(#mm5)"/>
  <rect x="340" y="200" width="520" height="250" fill="#A2977F" stroke="#17150F" stroke-width="2"/><line x1="400" y1="210" x2="400" y2="440" stroke="#17150F" stroke-width="1.5" opacity="0.45"/><line x1="460" y1="210" x2="460" y2="440" stroke="#17150F" stroke-width="1.5" opacity="0.45"/><line x1="520" y1="210" x2="520" y2="440" stroke="#17150F" stroke-width="1.5" opacity="0.45"/><line x1="580" y1="210" x2="580" y2="440" stroke="#17150F" stroke-width="1.5" opacity="0.45"/><line x1="640" y1="210" x2="640" y2="440" stroke="#17150F" stroke-width="1.5" opacity="0.45"/><line x1="700" y1="210" x2="700" y2="440" stroke="#17150F" stroke-width="1.5" opacity="0.45"/><line x1="760" y1="210" x2="760" y2="440" stroke="#17150F" stroke-width="1.5" opacity="0.45"/><line x1="820" y1="210" x2="820" y2="440" stroke="#17150F" stroke-width="1.5" opacity="0.45"/><rect x="260" y="450" width="680" height="210" fill="#BFB6A4" stroke="#17150F" stroke-width="2"/><rect x="320" y="660" width="560" height="40" fill="#7E7460" stroke="#17150F" stroke-width="2" opacity="0.5"/><line x1="260" y1="706" x2="940" y2="706" stroke="#17150F" stroke-width="3" opacity="0.55"/><line x1="300" y1="730" x2="900" y2="730" stroke="#17150F" stroke-width="1" stroke-dasharray="14 10" opacity="0.3"/><rect x="330" y="415" width="240" height="70" fill="#7E7460" stroke="#17150F" stroke-width="2" opacity="0.45"/><rect x="630" y="415" width="240" height="70" fill="#7E7460" stroke="#17150F" stroke-width="2" opacity="0.45"/><line x1="260" y1="800" x2="940" y2="800" stroke="#17150F" stroke-width="1.2" opacity="0.55"/><line x1="253" y1="807" x2="267" y2="793" stroke="#17150F" stroke-width="1.2" opacity="0.55"/><line x1="933" y1="807" x2="947" y2="793" stroke="#17150F" stroke-width="1.2" opacity="0.55"/><rect x="554" y="785" width="92" height="30" fill="#EFEDE6"/><text x="600" y="807" font-family="'JetBrains Mono','IBM Plex Mono',ui-monospace,SFMono-Regular,Menlo,Consolas,monospace" font-size="19" fill="#17150F" opacity="0.72" letter-spacing="1" text-anchor="middle">1800</text><line x1="200" y1="200" x2="200" y2="706" stroke="#17150F" stroke-width="1.2" opacity="0.55"/><line x1="193" y1="207" x2="207" y2="193" stroke="#17150F" stroke-width="1.2" opacity="0.55"/><line x1="193" y1="713" x2="207" y2="699" stroke="#17150F" stroke-width="1.2" opacity="0.55"/><g transform="translate(200 453) rotate(-90)"><rect x="-46" y="-15" width="92" height="30" fill="#EFEDE6"/><text x="0" y="7" font-family="'JetBrains Mono','IBM Plex Mono',ui-monospace,SFMono-Regular,Menlo,Consolas,monospace" font-size="19" fill="#17150F" opacity="0.72" letter-spacing="1" text-anchor="middle">1000</text></g>
  
  <rect x="0" y="900" width="1200" height="62" fill="#EFEDE6"/><line x1="0" y1="900" x2="1200" y2="900" stroke="#17150F" stroke-width="1.4" opacity="0.4"/><line x1="730" y1="900" x2="730" y2="962" stroke="#17150F" stroke-width="1.2" opacity="0.25"/><line x1="1000" y1="900" x2="1000" y2="962" stroke="#17150F" stroke-width="1.2" opacity="0.25"/><text x="34" y="938" font-family="'JetBrains Mono','IBM Plex Mono',ui-monospace,SFMono-Regular,Menlo,Consolas,monospace" font-size="17" fill="#17150F" opacity="0.55" letter-spacing="1">ФОРМА · МЕБЕЛЬ НА ЗАКАЗ · ЭСКИЗ ПЕРЕД ЗАМЕРОМ</text><text x="760" y="938" font-family="'JetBrains Mono','IBM Plex Mono',ui-monospace,SFMono-Regular,Menlo,Consolas,monospace" font-size="17" fill="#17150F" opacity="0.55" letter-spacing="1">СП-02</text><text x="1030" y="938" font-family="'JetBrains Mono','IBM Plex Mono',ui-monospace,SFMono-Regular,Menlo,Consolas,monospace" font-size="17" fill="#17150F" opacity="0.55" letter-spacing="1">М 1:20</text>
</svg>