<svg xmlns="http://www.w3.org/2000/svg" viewBox="0 0 1200 962" width="1200" height="962" role="img">
  <defs>
    <pattern id="mm" width="40" height="40" patternUnits="userSpaceOnUse">
      <path d="M40 0H0V40" fill="none" stroke="#17150F" stroke-width="0.6" opacity="0.07"/>
    </pattern>
    <pattern id="mm5" width="200" height="200" patternUnits="userSpaceOnUse">
      <path d="M200 0H0V200" fill="none" stroke="#17150F" stroke-width="0.9" opacity="0.11"/>
    </pattern></defs>
  <rect width="1200" height="962" fill="#EFEDE6"/>
  <rect width="1200" height="900" fill="url(#mm)"/>
  <rect width="1200" height="900" fill="url(#mm5)"/>
  <rect x="120" y="250" width="470" height="200" fill="#C7BCA6" stroke="#17150F" stroke-width="2"/><rect x="600" y="250" width="200" height="200" fill="#AC9F86" stroke="#17150F" stroke-width="2"/><rect x="810" y="250" width="270" height="200" fill="#C7BCA6" stroke="#17150F" stroke-width="2"/><line x1="255" y1="250" x2="255" y2="450" stroke="#17150F" stroke-width="1.5"/><line x1="400" y1="250" x2="400" y2="450" stroke="#17150F" stroke-width="1.5"/><line x1="945" y1="250" x2="945" y2="450" stroke="#17150F" stroke-width="1.5"/><line x1="160" y1="440" x2="240" y2="440" stroke="#17150F" stroke-width="4" opacity="0.55"/><line x1="300" y1="440" x2="380" y2="440" stroke="#17150F" stroke-width="4" opacity="0.55"/><line x1="440" y1="440" x2="520" y2="440" stroke="#17150F" stroke-width="4" opacity="0.55"/><line x1="850" y1="440" x2="930" y2="440" stroke="#17150F" stroke-width="4" opacity="0.55"/><line x1="990" y1="440" x2="1070" y2="440" stroke="#17150F" stroke-width="4" opacity="0.55"/><path d="M600 250 h200 v40 l-45 110 h-110 l-45 -110 z" fill="#8E8471" opacity=".55" stroke="#17150F" stroke-width="2"/><rect x="120" y="600" width="960" height="22" fill="#8E8471" stroke="#17150F" stroke-width="2"/><rect x="120" y="622" width="960" height="210" fill="#C7BCA6" stroke="#17150F" stroke-width="2"/><line x1="280" y1="622" x2="280" y2="832" stroke="#17150F" stroke-width="1.5"/><line x1="440" y1="622" x2="440" y2="832" stroke="#17150F" stroke-width="1.5"/><line x1="600" y1="622" x2="600" y2="832" stroke="#17150F" stroke-width="1.5"/><line x1="760" y1="622" x2="760" y2="832" stroke="#17150F" stroke-width="1.5"/><line x1="920" y1="622" x2="920" y2="832" stroke="#17150F" stroke-width="1.5"/><line x1="120" y1="692" x2="440" y2="692" stroke="#17150F" stroke-width="1.5"/><line x1="120" y1="762" x2="440" y2="762" stroke="#17150F" stroke-width="1.5"/><line x1="160" y1="682" x2="240" y2="682" stroke="#17150F" stroke-width="4" opacity="0.55"/><line x1="320" y1="682" x2="400" y2="682" stroke="#17150F" stroke-width="4" opacity="0.55"/><line x1="160" y1="752" x2="240" y2="752" stroke="#17150F" stroke-width="4" opacity="0.55"/><line x1="320" y1="752" x2="400" y2="752" stroke="#17150F" stroke-width="4" opacity="0.55"/><line x1="480" y1="682" x2="560" y2="682" stroke="#17150F" stroke-width="4" opacity="0.55"/><line x1="640" y1="682" x2="720" y2="682" stroke="#17150F" stroke-width="4" opacity="0.55"/><line x1="800" y1="682" x2="880" y2="682" stroke="#17150F" stroke-width="4" opacity="0.55"/><line x1="960" y1="682" x2="1040" y2="682" stroke="#17150F" stroke-width="4" opacity="0.55"/><circle cx="520" cy="560" r="26" fill="none" stroke="#17150F" stroke-width="2"/><line x1="520" y1="512" x2="520" y2="545" stroke="#17150F" stroke-width="3"/><line x1="520" y1="512" x2="560" y2="512" stroke="#17150F" stroke-width="3"/><line x1="120" y1="868" x2="1080" y2="868" stroke="#17150F" stroke-width="1.2" opacity="0.55"/><line x1="113" y1="875" x2="127" y2="861" stroke="#17150F" stroke-width="1.2" opacity="0.55"/><line x1="1073" y1="875" x2="1087" y2="861" stroke="#17150F" stroke-width="1.2" opacity="0.55"/><rect x="554" y="853" width="92" height="30" fill="#EFEDE6"/><text x="600" y="875" font-family="'JetBrains Mono','IBM Plex Mono',ui-monospace,SFMono-Regular,Menlo,Consolas,monospace" font-size="19" fill="#17150F" opacity="0.72" letter-spacing="1" text-anchor="middle">3600</text><line x1="78" y1="250" x2="78" y2="832" stroke="#17150F" stroke-width="1.2" opacity="0.55"/><line x1="71" y1="257" x2="85" y2="243" stroke="#17150F" stroke-width="1.2" opacity="0.55"/><line x1="71" y1="839" x2="85" y2="825" stroke="#17150F" stroke-width="1.2" opacity="0.55"/><g transform="translate(78 541) rotate(-90)"><rect x="-46" y="-15" width="92" height="30" fill="#EFEDE6"/><text x="0" y="7" font-family="'JetBrains Mono','IBM Plex Mono',ui-monospace,SFMono-Regular,Menlo,Consolas,monospace" font-size="19" fill="#17150F" opacity="0.72" letter-spacing="1" text-anchor="middle">2400</text></g><line x1="600" y1="218" x2="800" y2="218" stroke="#17150F" stroke-width="1.2" opacity="0.55"/><line x1="593" y1="225" x2="607" y2="211" stroke="#17150F" stroke-width="1.2" opacity="0.55"/><line x1="793" y1="225" x2="807" y2="211" stroke="#17150F" stroke-width="1.2" opacity="0.55"/><rect x="654" y="203" width="92" height="30" fill="#EFEDE6"/><text x="700" y="225" font-family="'JetBrains Mono','IBM Plex Mono',ui-monospace,SFMono-Regular,Menlo,Consolas,monospace" font-size="19" fill="#17150F" opacity="0.72" letter-spacing="1" text-anchor="middle">900</text>
  
  <rect x="0" y="900" width="1200" height="62" fill="#EFEDE6"/><line x1="0" y1="900" x2="1200" y2="900" stroke="#17150F" stroke-width="1.4" opacity="0.4"/><line x1="730" y1="900" x2="730" y2="962" stroke="#17150F" stroke-width="1.2" opacity="0.25"/><line x1="1000" y1="900" x2="1000" y2="962" stroke="#17150F" stroke-width="1.2" opacity="0.25"/><text x="34" y="938" font-family="'JetBrains Mono','IBM Plex Mono',ui-monospace,SFMono-Regular,Menlo,Consolas,monospace" font-size="17" fill="#17150F" opacity="0.55" letter-spacing="1">FAM · FAMILY FURNITURE · ЭСКИЗ ПЕРЕД ЗАМЕРОМ</text><text x="760" y="938" font-family="'JetBrains Mono','IBM Plex Mono',ui-monospace,SFMono-Regular,Menlo,Consolas,monospace" font-size="17" fill="#17150F" opacity="0.55" letter-spacing="1">КХ-01</text><text x="1030" y="938" font-family="'JetBrains Mono','IBM Plex Mono',ui-monospace,SFMono-Regular,Menlo,Consolas,monospace" font-size="17" fill="#17150F" opacity="0.55" letter-spacing="1">М 1:20</text>
</svg>